<?xml version="1.0" encoding="UTF-8" standalone="no"?>
<svg width="506px" height="365px" viewBox="0 0 506 365" version="1.1" xmlns="http://www.w3.org/2000/svg" xmlns:xlink="http://www.w3.org/1999/xlink" xmlns:sketch="http://www.bohemiancoding.com/sketch/ns">
    <!-- Generator: Sketch 3.3.3 (12072) - http://www.bohemiancoding.com/sketch -->
    <title>Group</title>
    <desc>Created with Sketch.</desc>
    <defs></defs>
    <g id="Page-1" stroke="none" stroke-width="1" fill="none" fill-rule="evenodd" sketch:type="MSPage">
        <g id="Group" sketch:type="MSLayerGroup" transform="translate(0.000000, 1.000000)">
            <g transform="translate(313.000000, 179.000000)" stroke="#7653E8" fill="#FFFFFF" sketch:type="MSShapeGroup">
                <path d="M15.4171772,59.0207101 C27.0981583,59.0207101 49,44.0068055 49,25.4862157 C49,6.96562588 43.0735432,0 28.5582809,0 C14.0430186,0 5.19631871,18.7793168 2.27607356,33.5344944 C-0.644171576,48.2896719 3.73619616,59.0207101 15.4171772,59.0207101 Z" id="Oval-12-Copy-4"></path>
                <path d="M14.0625761,51.9585799 C24.6147228,51.9585799 44.4,38.7411659 44.4,22.4366595 C44.4,6.13215308 39.046268,0 25.9337411,0 C12.8212143,0 4.82944757,16.5322754 2.191411,29.5219204 C-0.446625582,42.5115654 3.51042931,51.9585799 14.0625761,51.9585799 Z" id="Oval-12-Copy-3"></path>
                <path d="M17,52 C25,52 40.0000016,40.0439678 40.0000016,25.2954545 C40.0000016,10.5469413 35.9411255,5 26,5 C16.0588745,5 9.99999992,19.9545455 8,31.7045455 C6.00000008,43.4545455 8.99999998,52 17,52 Z" id="Oval-12-Copy-2"></path>
                <path d="M13.012271,51 C21.3558289,51 37.0000016,39.0439678 37.0000016,24.2954545 C37.0000016,9.54694134 32.7668181,4 22.3987736,4 C12.0307291,4 5.71165779,18.9545455 3.6257684,30.7045455 C1.53987901,42.4545455 4.66871312,51 13.012271,51 Z" id="Oval-12-Copy"></path>
                <path d="M10,48 C18,48 33.0000016,36.8071187 33.0000016,23 C33.0000016,9.19288125 28.9411255,4 19,4 C9.0588745,4 2.99999992,18 1,29 C-0.99999992,40 1.99999998,48 10,48 Z" id="Oval-12"></path>
            </g>
            <ellipse id="Oval-8" stroke="#7653E8" fill="#FFFFFF" sketch:type="MSShapeGroup" cx="302" cy="168.5" rx="8" ry="2.5"></ellipse>
            <ellipse id="Oval-8-Copy" stroke="#7653E8" fill="#FFFFFF" sketch:type="MSShapeGroup" cx="303" cy="187.5" rx="8" ry="2.5"></ellipse>
            <ellipse id="Oval-8-Copy-2" stroke="#7653E8" fill="#FFFFFF" sketch:type="MSShapeGroup" cx="303.5" cy="203.5" rx="9.5" ry="2.5"></ellipse>
            <ellipse id="Oval-8-Copy-3" stroke="#7653E8" fill="#FFFFFF" sketch:type="MSShapeGroup" cx="303.5" cy="220" rx="9.5" ry="3"></ellipse>
            <text id="PRIMAL-INTERNAL" sketch:type="MSTextLayer" font-family="Work Sans" font-size="9" font-weight="bold" fill="#7653E8">
                <tspan x="420" y="105">PRIMAL INTERNAL</tspan>
                <tspan x="420" y="115">INTERSECTION</tspan>
                <tspan x="420" y="125">OF LOVE</tspan>
            </text>
            <text id="INTERSTATE-GIVES" sketch:type="MSTextLayer" font-family="Work Sans" font-size="9" font-weight="bold" fill="#7653E8">
                <tspan x="421.045361" y="148">INTERSTATE GIVES</tspan>
                <tspan x="421.045361" y="158">WAY TO LIGHT</tspan>
            </text>
            <text id="HESITATING" sketch:type="MSTextLayer" font-family="Work Sans" font-size="9" font-weight="bold" fill="#7653E8">
                <tspan x="440" y="289">HESITATING</tspan>
                <tspan x="440" y="299">ONCE MORE</tspan>
            </text>
            <path d="M128,357 C137.112698,357 147,349 147,339 C147,329 141.112698,321 132,321 C122.887302,321 113,330.335017 113,340 C113,349.664983 118.887302,357 128,357 Z" id="Oval-1-Copy-3" stroke="#7653E8" fill="#FFFFFF" sketch:type="MSShapeGroup"></path>
            <path d="M135,359 C144.112698,359 154,351 154,341 C154,331 148.112698,323 139,323 C129.887302,323 120,332.335017 120,342 C120,351.664983 125.887302,359 135,359 Z" id="Oval-1-Copy" stroke="#7653E8" fill="#FFFFFF" sketch:type="MSShapeGroup"></path>
            <path d="M138,362 C147.112698,362 157,354 157,344 C157,334 151.112698,326 142,326 C132.887302,326 123,335.335017 123,345 C123,354.664983 128.887302,362 138,362 Z" id="Path" stroke="#7653E8" fill="#FFFFFF" sketch:type="MSShapeGroup"></path>
            <path d="M143,364 C152.112698,364 162,356 162,346 C162,336 156.112698,328 147,328 C137.887302,328 128,337.335017 128,347 C128,356.664983 133.887302,364 143,364 Z" id="Oval-1" stroke="#7653E8" fill="#FFFFFF" sketch:type="MSShapeGroup"></path>
            <circle id="Oval-5" stroke="#7653E8" sketch:type="MSShapeGroup" cx="141" cy="344" r="4"></circle>
            <path d="M142,351 C145.037566,351 148,346.865993 148,343 C148,339.134007 146.537566,337 143.5,337 C140.462434,337 137,341.134007 137,345 C137,348.865993 138.962434,351 142,351 Z" id="Oval-6" stroke="#7653E8" sketch:type="MSShapeGroup"></path>
            <path d="M143.818182,355 C147.960318,355 152,349.389562 152,344.142857 C152,338.896152 150.005772,336 145.863636,336 C141.721501,336 137,341.610438 137,346.857143 C137,352.103848 139.676046,355 143.818182,355 Z" id="Oval-6-Copy" stroke="#7653E8" sketch:type="MSShapeGroup"></path>
            <path d="M71,329 C71,329 142.489362,329 167,323 L167,316 L71,315 L71,329 Z" id="Path-1" stroke="#7653E8" fill="#FFFFFF" sketch:type="MSShapeGroup"></path>
            <path d="M71,318 L71,314 L53,313 C53,313 50,318 71,318 Z" id="Path-2" stroke="#7653E8" fill="#FFFFFF" sketch:type="MSShapeGroup"></path>
            <path d="M2,280 C2,280 6,307 51,312 C96,317 189,315 189,315 C189,315 350,295 386,283" id="Path-3" stroke="#7653E8" sketch:type="MSShapeGroup"></path>
            <path d="M2,280 C2,280 -4,263 9,241 C22,219 81.9999995,156 103,139 C124.000001,122 143,105 143,105 C143,105 156.999999,94 162,85 C167.000001,76 196,46 196,46 C196,46 239.000015,6 353,0" id="Path-4" stroke="#7653E8" sketch:type="MSShapeGroup"></path>
            <path d="M7,246 C7,246 18,237 31,243 C44,249 50,263 50,263" id="Path-5" stroke="#7653E8" sketch:type="MSShapeGroup"></path>
            <path d="M52,267 C52,267 62,288 56,300 C50,312 33,308 33,308" id="Path-6" stroke="#7653E8" sketch:type="MSShapeGroup"></path>
            <path d="M127,261 C127,261 126,264 136,264 C146,264 185,258 185,258 C185,258 190,257 189,248 C188,239 183,215 183,215 C183,215 181,210 173,213 C165,216 130,230 130,230 C130,230 125,233 125,235 C125,237 127,261 127,261 Z" id="Path-7" stroke="#7653E8" sketch:type="MSShapeGroup"></path>
            <path d="M31,212 C31,212 32,216 43,217 C54,218 60,222 60,222 C60,222 64,225 69,220 C74,215 92,204 92,204 C92,204 96,200 92,198 C88,196 73,189 59,190 C59,190 53,190 51,191" id="Path-8" stroke="#7653E8" sketch:type="MSShapeGroup"></path>
            <path d="M87,154 C87,154 95,151 101,151 L118,151 C118,151 150,157 166,179 C182,201 191,208 197,239 C203,270 205,295 202,299 C199,303 198,312 182,315" id="Path-9" stroke="#7653E8" sketch:type="MSShapeGroup"></path>
            <path d="M136,111 C136,111 152,105 170,106 C188,107 207,116 207,116 C207,116 227,127.999999 231,133" id="Path-10" stroke="#7653E8" sketch:type="MSShapeGroup"></path>
            <path d="M204,96 L204,107 C204,107 217,107 229,120 C241,133 242,139 242,139 C242,139 246,146 246,151 C246,156 249,266 249,266 L312,249 L312,241" id="Path-11" stroke="#7653E8" sketch:type="MSShapeGroup"></path>
            <path d="M278,259 L278,290 C278,290 274,302 259,306" id="Path-12" stroke="#7653E8" sketch:type="MSShapeGroup"></path>
            <text id="NOTHING" sketch:type="MSTextLayer" font-family="Work Sans" font-size="9" font-weight="bold" fill="#7653E8">
                <tspan x="286" y="275">NOTHING</tspan>
                <tspan x="286" y="285">CAN SEE</tspan>
            </text>
            <path d="M159,91 L167,100 L185,108" id="Path-13" stroke="#7653E8" sketch:type="MSShapeGroup"></path>
            <path d="M167,98 L177.915022,84.9859356 C182.943348,78.9906237 193,67 193,67 C193,67 201,66 198,72 C195,78 185,96 185,96 C185,96 179,98 177,94" id="Path-14" stroke="#7653E8" sketch:type="MSShapeGroup"></path>
            <path d="M195,70 L180,89 C180,89 176,92 183,94" id="Path-15" stroke="#7653E8" sketch:type="MSShapeGroup"></path>
            <path d="M188,86 L183,88 C183,88 182,92 185,90" id="Path-16" stroke="#7653E8" sketch:type="MSShapeGroup"></path>
            <path d="M165,82 C165,82 163,90 170,88 C177,86 189,62 189,62 C189,62 189.999999,57 186,58" id="Path-17" stroke="#7653E8" sketch:type="MSShapeGroup"></path>
            <path d="M197,56 L187,70" id="Path-18" stroke="#7653E8" sketch:type="MSShapeGroup"></path>
            <path d="M207,63 L201,76" id="Path-19" stroke="#7653E8" sketch:type="MSShapeGroup"></path>
            <path d="M199,80 L198,82" id="Path-20" stroke="#7653E8" sketch:type="MSShapeGroup"></path>
            <path d="M195,86 L186,107" id="Path-21" stroke="#7653E8" sketch:type="MSShapeGroup"></path>
            <path d="M195,47 C195,47 194,54 198,57 C202,60 208,65 217,66" id="Path-22" stroke="#7653E8" sketch:type="MSShapeGroup"></path>
            <path d="M190,109 L204,95" id="Path-23" stroke="#7653E8" sketch:type="MSShapeGroup"></path>
            <path d="M191,109 L214,115" id="Path-24" stroke="#7653E8" sketch:type="MSShapeGroup"></path>
            <path d="M204,95 L267,114" id="Path-25" stroke="#7653E8" sketch:type="MSShapeGroup"></path>
            <path d="M211,75 C211,75 204,90 204,96" id="Path-26" stroke="#7653E8" sketch:type="MSShapeGroup"></path>
            <path d="M187,108 C187,108 211,71 220,63 C229,55 245,45 245,45 C245,45 279,25 314,18" id="Path-27" stroke="#7653E8" sketch:type="MSShapeGroup"></path>
            <path d="M203,42 L204,44 L228,45 L261,29 C261,29 259,26 253,26 L232,26" id="Path-28" stroke="#7653E8" sketch:type="MSShapeGroup"></path>
            <path d="M264,21 L278,24 L294,18 L280,17 L264,21 Z" id="Path-29" stroke="#7653E8" sketch:type="MSShapeGroup"></path>
            <path d="M276,11 C276,11 301,12 314,18" id="Path-30" stroke="#7653E8" sketch:type="MSShapeGroup"></path>
            <path d="M313,18 C313,18 356,28 376,62 C396,96 404,103 404,110 C404,117 404,230.004167 404,230.004167" id="Path-31" stroke="#7653E8" sketch:type="MSShapeGroup"></path>
            <path d="M316,19 C316,19 334,42 354,53 C354,53 346,93 348,116" id="Path-32" stroke="#7653E8" sketch:type="MSShapeGroup"></path>
            <path d="M168,77 C168,77 167,83 173,80" id="Path-33" stroke="#7653E8" sketch:type="MSShapeGroup"></path>
            <path d="M173,72 C173,72 173,76 178,73" id="Path-34" stroke="#7653E8" sketch:type="MSShapeGroup"></path>
            <path d="M207,83 L271,100" id="Path-35" stroke="#7653E8" sketch:type="MSShapeGroup"></path>
            <path d="M247,155 L249,155" id="Path-36" stroke="#7653E8" sketch:type="MSShapeGroup"></path>
            <path d="M254,155 L260,155" id="Path-37" stroke="#7653E8" sketch:type="MSShapeGroup"></path>
            <path d="M265,154 L273,154" id="Path-38" stroke="#7653E8" sketch:type="MSShapeGroup"></path>
            <path d="M277,153 L283,153" id="Path-39" stroke="#7653E8" sketch:type="MSShapeGroup"></path>
            <path d="M287,152 L293,151" id="Path-40" stroke="#7653E8" sketch:type="MSShapeGroup"></path>
            <path d="M299,150 L304,150" id="Path-41" stroke="#7653E8" sketch:type="MSShapeGroup"></path>
            <path d="M310,149 L317,148" id="Path-42" stroke="#7653E8" sketch:type="MSShapeGroup"></path>
            <path d="M320,148 L326,147" id="Path-43" stroke="#7653E8" sketch:type="MSShapeGroup"></path>
            <path d="M330,146 L338,145" id="Path-44" stroke="#7653E8" sketch:type="MSShapeGroup"></path>
            <path d="M341,145 L349,144" id="Path-45" stroke="#7653E8" sketch:type="MSShapeGroup"></path>
            <path d="M352,143 L359,142" id="Path-46" stroke="#7653E8" sketch:type="MSShapeGroup"></path>
            <path d="M363,142 L371,140" id="Path-47" stroke="#7653E8" sketch:type="MSShapeGroup"></path>
            <path d="M374,140 L381,138" id="Path-48" stroke="#7653E8" sketch:type="MSShapeGroup"></path>
            <path d="M385,138 L393,136" id="Path-49" stroke="#7653E8" sketch:type="MSShapeGroup"></path>
            <path d="M398,135 L404,134" id="Path-50" stroke="#7653E8" sketch:type="MSShapeGroup"></path>
            <path d="M314,129 L405,102 L416,102" id="Path-51" stroke="#7653E8" sketch:type="MSShapeGroup"></path>
            <path d="M312,161 L406,145 L417.045361,145" id="Path-52" stroke="#7653E8" sketch:type="MSShapeGroup"></path>
            <path d="M249,151 L264,150" id="Path-53" stroke="#7653E8" sketch:type="MSShapeGroup"></path>
            <path d="M269,150 L276,149" id="Path-54" stroke="#7653E8" sketch:type="MSShapeGroup"></path>
            <path d="M279,149 L286,148" id="Path-55" stroke="#7653E8" sketch:type="MSShapeGroup"></path>
            <path d="M293,147 L299,146" id="Path-56" stroke="#7653E8" sketch:type="MSShapeGroup"></path>
            <path d="M308,145 L315,144" id="Path-57" stroke="#7653E8" sketch:type="MSShapeGroup"></path>
            <path d="M319,144 L326,143" id="Path-58" stroke="#7653E8" sketch:type="MSShapeGroup"></path>
            <path d="M331,142 L338,141" id="Path-59" stroke="#7653E8" sketch:type="MSShapeGroup"></path>
            <path d="M343,141 L349,140" id="Path-60" stroke="#7653E8" sketch:type="MSShapeGroup"></path>
            <path d="M353,139 L360,138" id="Path-61" stroke="#7653E8" sketch:type="MSShapeGroup"></path>
            <path d="M363,137 L370,136" id="Path-62" stroke="#7653E8" sketch:type="MSShapeGroup"></path>
            <path d="M374,136 L382,134" id="Path-63" stroke="#7653E8" sketch:type="MSShapeGroup"></path>
            <path d="M358,127 L366,130" id="Path-64" stroke="#7653E8" sketch:type="MSShapeGroup"></path>
            <path d="M369,130 L375,131" id="Path-65" stroke="#7653E8" sketch:type="MSShapeGroup"></path>
            <path d="M349,123 C349,123 348,144 353,159 C353,159 324.999998,171 319,187" id="Path-66" stroke="#7653E8" sketch:type="MSShapeGroup"></path>
            <path d="M299,129 L324,135 L301,140 L278,134 L299,129 Z" id="Path-67" stroke="#7653E8" sketch:type="MSShapeGroup"></path>
            <path d="M287,136 L298,133 L298,130" id="Path-68" stroke="#7653E8" sketch:type="MSShapeGroup"></path>
            <path d="M302,130 L302,140" id="Path-69" stroke="#7653E8" sketch:type="MSShapeGroup"></path>
            <path d="M302,134 L314,136" id="Path-70" stroke="#7653E8" sketch:type="MSShapeGroup"></path>
            <path d="M298,134 L298,139.09902" id="Path-71" stroke="#7653E8" sketch:type="MSShapeGroup"></path>
            <path d="M283,139 L285,141" id="Path-72" stroke="#7653E8" sketch:type="MSShapeGroup"></path>
            <path d="M285.5,143.5 L287.5,147.5" id="Line" stroke="#7653E8" stroke-linecap="square" sketch:type="MSShapeGroup"></path>
            <path d="M290.5,153.5 L293.5,160.5" id="Line" stroke="#7653E8" stroke-linecap="square" sketch:type="MSShapeGroup"></path>
            <path d="M288.5,143.5 L289.5,146.5" id="Line" stroke="#7653E8" stroke-linecap="square" sketch:type="MSShapeGroup"></path>
            <path d="M247,173 C247,173 259,182 260,195 C261,208 258,214 258,214 C258,214 256,220 248,223" id="Path-76" stroke="#7653E8" sketch:type="MSShapeGroup"></path>
            <path d="M247,168 C247,168 266,176 266,192 C266,208 258,220 258,220 C258,220 254,223 249,223" id="Path-77" stroke="#7653E8" sketch:type="MSShapeGroup"></path>
            <path d="M259,176 C259,176 273,189 273,194 C273,199 273,207 266,212 L261,215" id="Path-78" stroke="#7653E8" sketch:type="MSShapeGroup"></path>
            <path d="M250,194 C250,194 270,199 281,199 L279,203 L291,199 L287,192 L284,196 C284,196 257,194 250,189 C243,184 250,194 250,194 Z" id="Path-79" fill="#7653E8" sketch:type="MSShapeGroup"></path>
            <path d="M294,162 L294,221.008474 L284,244 L290,242 L296,223 L304,223 L297,242 L302,240 L308,223 L313,220 L312,161 L310,161 L310,155 L306,152 L298,152 L294,154 L295,157 L294,162 Z" id="Path-80" stroke="#7653E8" sketch:type="MSShapeGroup"></path>
            <path d="M249,242 C249,242 281,245 297,241 C313,237 314,232 314,232 L314,227 C314,227 311,237 272,238 L249,238" id="Path-81" stroke="#7653E8" sketch:type="MSShapeGroup"></path>
            <path d="M314,220 L314,228" id="Path-82" stroke="#7653E8" sketch:type="MSShapeGroup"></path>
            <path d="M304,156 L304,217.008196" id="Path-83" stroke="#7653E8" sketch:type="MSShapeGroup"></path>
            <path d="M310,161 L310,186" id="Path-84" stroke="#7653E8" sketch:type="MSShapeGroup"></path>
            <path d="M304,156 L297,153" id="Path-85" stroke="#7653E8" sketch:type="MSShapeGroup"></path>
            <path d="M305,157 L310,157" id="Path-86" stroke="#7653E8" sketch:type="MSShapeGroup"></path>
            <path d="M301,155 L295,156" id="Path-87" stroke="#7653E8" sketch:type="MSShapeGroup"></path>
            <path d="M302,143 L302,146.162278" id="Path-88" stroke="#7653E8" sketch:type="MSShapeGroup"></path>
            <path d="M328,283 L340,283 L373,268" id="Path-89" stroke="#7653E8" sketch:type="MSShapeGroup"></path>
            <path d="M394,254 L424,286 L436,286" id="Path-90" stroke="#7653E8" sketch:type="MSShapeGroup"></path>
            <path d="M325,204 L319,208 C319,208 347,207 357,211 C367,215 368,216 368,216 L363,217 L377,219 L379,212 L373,213 C373,213 362,208 351,207 C340,206 325,204 325,204 Z" id="Path-91" fill="#7653E8" sketch:type="MSShapeGroup"></path>
            <path d="M314,218 L332,223" id="Path-92" stroke="#7653E8" sketch:type="MSShapeGroup"></path>
            <path d="M314,221 C314,221 323,230 327,237 C331,244 334,250 339,251 C344,252 359,251 359,251" id="Path-93" stroke="#7653E8" sketch:type="MSShapeGroup"></path>
            <path d="M315,224 L317,231 L318,237 L325,239 C325,239 328,251 339,254" id="Path-94" stroke="#7653E8" sketch:type="MSShapeGroup"></path>
            <g id="_logo" transform="translate(363.000000, 236.000000)" sketch:type="MSShapeGroup">
                <ellipse id="Oval-1" stroke="#7653E8" cx="16.6666667" cy="16.6901408" rx="16.6666667" ry="16.6901408"></ellipse>
                <ellipse id="Oval-1-Copy" stroke="#7653E8" cx="23.3333333" cy="16.6901408" rx="16.6666667" ry="16.6901408"></ellipse>
                <ellipse id="Oval-1-Copy-2" stroke="#7653E8" cx="30" cy="16.6901408" rx="16.6666667" ry="16.6901408"></ellipse>
                <ellipse id="Oval-1-Copy-3" stroke="#7653E8" cx="36.6666667" cy="16.6901408" rx="16.6666667" ry="16.6901408"></ellipse>
                <ellipse id="Oval-1-Copy-4" stroke="#7653E8" cx="43.3333333" cy="16.6901408" rx="16.6666667" ry="16.6901408"></ellipse>
                <ellipse id="Oval-6" fill="#7653E8" cx="30" cy="16.6901408" rx="2.88888889" ry="2.89295775"></ellipse>
            </g>
        </g>
    </g>
</svg>